<?xml version="1.0" encoding="iso-8859-1"?>
<!-- Generator: Adobe Illustrator 19.0.0, SVG Export Plug-In . SVG Version: 6.00 Build 0)  -->
<svg version="1.1" id="Capa_1" xmlns="http://www.w3.org/2000/svg" xmlns:xlink="http://www.w3.org/1999/xlink" x="0px" y="0px"
	 viewBox="0 0 314.838 314.838" style="enable-background:new 0 0 314.838 314.838;" xml:space="preserve">
<path style="fill:#EB573B;" d="M253.826,45.638l-19.2-28c-1.6-2.4-1.6-5.6-0.4-8c1.6-2.4,4-4,6.8-4l55.6,2.8c2.8,0,5.6,2,6.4,4.4
	c1.2,2.8,0.8,5.6-1.2,8l-22.8,26.4L253.826,45.638z"/>
<path style="fill:#F1705A;" d="M271.426,42.438l-19.2-28c-1.6-2.4-1.6-5.6-0.4-8c0,0,0,0,0.4-0.4l-10.8-0.4c-2.8,0-5.6,1.2-6.8,4
	c-1.6,2.4-1.2,5.6,0.4,8l19.2,28l25.6,2l3.6-4L271.426,42.438z"/>
<path style="fill:#EB573B;" d="M90.226,308.038c-11.6,0-22.4-4.4-30.8-12.4c-8.8-8.4-14-19.6-14.4-31.6
	c-0.8-24.8,18.8-45.6,43.6-46.8h1.2c19.6-0.4,58-5.6,90.8-37.6c33.2-34.4,37.2-74.8,37.6-90.8v-1.2c0.8-24.4,21.2-43.6,45.2-43.6
	c0.4,0,0.8,0,1.6,0c12,0.4,23.2,5.6,31.6,14.4c8.4,8.8,12.4,20.4,12.4,32.4c-1.6,46.4-7.6,92.8-66,151.2s-104.8,64.4-151.2,66
	C91.026,308.038,90.626,308.038,90.226,308.038z"/>
<path style="fill:#F1705A;" d="M62.626,279.638c-0.8-24.8,18.8-45.6,43.6-46.8h1.2c19.6-0.4,58-5.6,90.8-37.6
	c33.2-34.4,37.2-74.8,37.6-90.8v-1.2c0.8-24.4,21.2-43.6,45.2-43.6c0.4,0,0.8,0,1.6,0c6.4,0.4,12.8,1.6,18.4,4.4
	c-1.2-2-2.8-4-4.4-5.6c-8.4-8.8-19.6-14-31.6-14.4c-0.4,0-0.8,0-1.6,0c-24,0-44.4,19.2-45.2,43.6v1.2c-0.4,16-4.4,56.4-37.6,90.8
	c-33.2,32-71.2,37.6-90.8,37.6h-1.2c-24.8,0.8-44.4,22-43.6,46.8c0.4,12,5.6,23.2,14.4,31.6c3.2,3.2,7.2,5.6,11.2,7.6
	C65.826,296.438,63.026,288.438,62.626,279.638z"/>
<path style="fill:#EB573B;" d="M47.826,278.838l-26.4,22.8c-1.2,1.2-3.2,2-4.8,2c-1.2,0-2,0-2.8-0.4c-2.8-1.2-4.4-3.6-4.4-6.4
	l-3.2-56c0-2.8,1.2-5.6,4-6.8c2.4-1.6,5.6-1.2,8,0.4l28,19.2L47.826,278.838z"/>
<path style="fill:#F1705A;" d="M9.826,252.038c2.4-1.6,5.6-1.2,8,0.4l28,19.2l0.8,8.8l1.2-1.2l-2-25.6l-28-19.2
	c-2.4-1.6-5.6-1.6-8-0.4c-2.4,1.6-4,4-4,6.8l0.8,14.4C7.426,254.038,8.626,252.838,9.826,252.038z"/>
<path style="fill:#561900;" d="M11.426,308.838c1.6,0.8,3.6,1.2,5.2,1.2c3.2,0,6.4-1.2,9.2-3.2l20-17.6c2.4,4,5.6,8,9.2,11.6
	c9.6,8.8,22,14,35.2,14l0,0h1.6c47.6-1.6,95.2-8,155.2-68s66.4-107.6,67.6-155.2c0.4-13.6-4.4-26.8-14-36.8
	c-3.6-3.6-7.2-6.8-11.6-9.2l17.6-20c3.6-4,4.4-9.6,2.4-14.4s-6.8-8-12-8.4l-55.6-2.8c-5.2-0.4-10,2.4-12.8,6.8
	c-2.4,4.4-2.4,10,0.4,14.4l14.4,21.2c-18,7.2-31.2,24.8-32,45.6v1.2c-0.4,15.2-4,54-35.6,86.4c-31.6,30.8-68,35.6-86.8,36h-1.2
	c-20.8,0.8-38,14-45.6,32l-20.8-14.4c-4.4-2.8-10-3.2-14.4-0.4c-4.4,2.4-7.2,7.6-6.8,12.8l2.8,55.2
	C3.426,302.038,6.626,306.838,11.426,308.838z M239.826,14.038c-0.4-0.4-0.4-0.8,0-1.6c0.4-0.4,0.8-0.8,1.2-0.8l55.6,2.8
	c0.4,0,0.8,0.4,1.2,0.8c0.4,0.4,0,1.2-0.4,1.6l-20,23.2c-4-1.2-8-2-12.4-2h-1.6c-2.4,0-4.4,0.4-6.8,0.4L239.826,14.038z
	 M88.626,224.038h1.2c20.8-0.4,60.4-6,95.2-39.6c34.8-36,39.2-78.4,39.2-95.2v-1.2c0.8-20.8,18.4-37.6,38.8-37.6h1.2
	c4.4,0,8.8,1.2,12.8,2.4l0,0c5.6,2,10.4,5.2,14.4,9.6c7.2,7.6,10.8,17.6,10.4,28c-1.6,45.2-7.6,90.4-64,146.8
	c-56.8,56.8-102,62.8-146.8,64h-1.2l0,0c-10,0-19.6-3.6-26.8-10.4c-7.6-7.2-12-16.8-12.4-27.2
	C50.626,242.838,67.426,224.838,88.626,224.038z M13.026,239.238c0.4-0.4,1.2-0.4,1.6,0l24.8,16.8c-0.4,2.8-0.4,5.6-0.4,8.4
	c0,4.4,0.8,8.4,2,12.4l-23.6,20.4c-0.4,0.4-0.4,0.4-1.6,0.4c-0.4-0.4-0.8-0.8-0.8-1.2l-2.8-55.6
	C12.226,240.038,12.626,239.638,13.026,239.238z"/>
<path style="fill:#F1705A;" d="M213.426,237.638c1.6,0,3.2-0.8,4.4-2c56-56,62-100.4,63.2-145.2c0-3.6-2.4-6.4-6-6.4
	c-3.2,0-6.4,2.4-6.4,6c-1.2,42-6.8,84-59.6,136.8c-2.4,2.4-2.4,6.4,0,8.8C210.226,236.838,211.826,237.638,213.426,237.638z"/>
<g>
</g>
<g>
</g>
<g>
</g>
<g>
</g>
<g>
</g>
<g>
</g>
<g>
</g>
<g>
</g>
<g>
</g>
<g>
</g>
<g>
</g>
<g>
</g>
<g>
</g>
<g>
</g>
<g>
</g>
</svg>
