<?xml version="1.0" encoding="iso-8859-1"?>
<!-- Generator: Adobe Illustrator 19.0.0, SVG Export Plug-In . SVG Version: 6.00 Build 0)  -->
<svg version="1.1" id="Capa_1" xmlns="http://www.w3.org/2000/svg" xmlns:xlink="http://www.w3.org/1999/xlink" x="0px" y="0px"
	 viewBox="0 0 311.6 311.6" style="enable-background:new 0 0 311.6 311.6;" xml:space="preserve">
<path style="fill:#F5B31F;" d="M278.253,278.4c7.2,2,15.2,0,20.8-5.6c8.4-8.4,8.4-22,0-30.4c-7.2-7.2-18.4-8.4-26.8-2.8l-47.2-47.2
	c22.4-41.6,8.8-103.2-36-148c-52-52-112-47.2-152-7.2s-44.8,100,7.2,152c44.8,44.8,106,58.4,148,36l47.2,47.2
	c-5.2,8.4-4.4,19.6,2.8,26.8c8.4,8.4,22,8.4,30.4,0C278.253,293.6,280.253,285.6,278.253,278.4z"/>
<g>
	<path style="fill:#F7CA63;" d="M295.453,239.6L295.453,239.6L295.453,239.6z"/>
	<path style="fill:#F7CA63;" d="M67.453,189.6c-52-52-47.2-112-7.2-152c16.8-16.8,37.2-27.2,59.2-30c-30.4-4-59.6,7.6-82.4,30
		c-40,40-44.8,100,7.2,152c34,34,77.6,50,114.8,46C127.853,232,94.653,216.8,67.453,189.6z"/>
</g>
<path style="fill:#561900;" d="M237.853,303.6c5.2,5.2,12.4,8,19.6,8c7.6,0,14.4-2.8,19.6-8c4.8-4.8,7.6-11.6,8-18.4
	c6.8-0.4,13.2-3.2,18.4-8c5.2-5.2,8-12.4,8-19.6c0-7.6-2.8-14.4-8-19.6c-7.6-7.6-20-10-30-6l-40.8-40.8
	c21.2-45.2,5.6-106.4-39.2-151.2c-26.4-26.4-56-40-86-40c-27.2,0-53.6,11.6-74.8,32.8c-46,46-42.8,110.8,7.2,160.8
	c30.8,30.8,70,48.4,107.6,48.4c16,0,30.4-3.2,43.6-9.2l40.8,40.8C227.853,283.6,229.853,295.6,237.853,303.6z M48.653,185.2
	c-45.6-45.6-48.8-102-7.2-143.6c19.2-19.2,42-29.2,66-29.2c26.8,0,53.6,12.4,77.2,36.4c41.2,41.2,56,100,35.2,140l-31.2,31.2
	c-12,6.4-26,9.6-41.2,9.6C113.053,230,77.053,213.6,48.653,185.2z M201.053,225.2l24-24l42.8,42.8c2,2,5.2,2.4,7.6,0.8
	c6-3.6,14.4-2.8,19.2,2c2.8,2.8,4.4,6.8,4.4,10.8c0,4-1.6,8-4.4,10.8c-4,4-9.6,5.2-14.8,4c-2-0.4-4.4,0-6,1.6c-1.6,1.6-2,3.6-1.6,6
	c1.6,5.2,0,10.8-4,14.8c-6,6-16,6-22,0c-5.2-5.2-6-13.2-2-19.2c1.6-2.4,1.2-5.6-0.8-7.6L201.053,225.2z"/>
<path style="fill:#F9F6CD;" d="M279.853,272.8c5.2,1.2,10.8,0,14.8-4c2.8-2.8,4.4-6.8,4.4-10.8c0-4-1.6-8-4.4-10.8
	c-4.8-4.8-13.2-6-19.2-2c-2.4,1.6-5.6,1.2-7.6-0.8l-42.8-43.2l-24,24l42.8,42.8c2,2,2.4,5.2,0.8,7.6c-4,6-3.2,14,2,19.2
	c6,6,16,6,22,0c4-4,5.2-9.2,4-14.8c-0.4-2,0-4.4,1.6-6C275.453,272.8,277.853,272,279.853,272.8z"/>
<g>
	<path style="fill:#FFFFFF;" d="M254.253,287.2c-5.2-5.2-6-13.2-2-19.2c1.6-2.4,1.2-5.6-0.8-7.6l-42.8-42.8l16.4-16.4l0,0l-24,24
		l42.8,42.8c2,2,2.4,5.2,0.8,7.6c-4,6-3.2,14,2,19.2c6,6,16,6,22,0c1.2-1.2,2.4-2.8,3.2-4.4
		C265.853,292.8,258.653,292,254.253,287.2z"/>
	<path style="fill:#FFFFFF;" d="M287.453,265.2c-2-0.4-4.4,0-6,1.6c-1.6,1.2-2,3.6-1.6,5.6l0,0c5.2,1.2,10.8,0,14.8-4
		c1.2-1.2,2.4-2.8,3.2-4.8C294.653,265.6,291.053,266,287.453,265.2z"/>
</g>
<path style="fill:#F7CA63;" d="M192.253,136c0.8,2.8,3.2,4.8,6,4.8c0.4,0,0.8,0,1.6,0c3.2-0.8,5.2-4,4.4-7.6
	c-5.6-23.6-18.4-45.6-36.8-64.4c-10.8-10.8-22.4-19.2-34.8-24.8c-3.2-1.6-6.8,0-8,3.2c-1.6,3.2,0,6.8,3.2,8
	c10.8,4.8,21.2,12.4,31.2,22.4C175.453,94.4,187.453,115.2,192.253,136z"/>
<g>
</g>
<g>
</g>
<g>
</g>
<g>
</g>
<g>
</g>
<g>
</g>
<g>
</g>
<g>
</g>
<g>
</g>
<g>
</g>
<g>
</g>
<g>
</g>
<g>
</g>
<g>
</g>
<g>
</g>
</svg>
