<?xml version="1.0" encoding="iso-8859-1"?>
<!-- Generator: Adobe Illustrator 19.0.0, SVG Export Plug-In . SVG Version: 6.00 Build 0)  -->
<svg version="1.1" id="Capa_1" xmlns="http://www.w3.org/2000/svg" xmlns:xlink="http://www.w3.org/1999/xlink" x="0px" y="0px"
	 viewBox="0 0 316.038 316.038" style="enable-background:new 0 0 316.038 316.038;" xml:space="preserve">
<rect x="4.838" y="152.419" style="fill:#EB573B;" width="304.4" height="68"/>
<g>
	<rect x="4.838" y="92.819" style="fill:#F7D57B;" width="304.4" height="68"/>
	<rect x="4.838" y="220.419" style="fill:#F7D57B;" width="304.4" height="68"/>
</g>
<rect x="4.838" y="152.419" style="fill:#F1705A;" width="25.6" height="68"/>
<g>
	<rect x="4.838" y="92.819" style="fill:#F9E4AB;" width="25.6" height="68"/>
	<rect x="4.838" y="220.419" style="fill:#F9E4AB;" width="25.6" height="68"/>
</g>
<path style="fill:#91C056;" d="M158.038,92.819c2.8-63.2-62.8-62.8-62.8-62.8S94.838,95.619,158.038,92.819z"/>
<path style="fill:#B1D37C;" d="M114.038,32.819c-10.8-2.8-19.2-2.8-19.2-2.8s0,66,62.8,62.8c0-0.4,0-1.2,0-1.6
	C120.038,82.819,114.838,43.619,114.038,32.819z"/>
<path style="fill:#91C056;" d="M157.238,92.819c-2.8-63.2,62.8-62.8,62.8-62.8S220.038,95.619,157.238,92.819z"/>
<path style="fill:#B1D37C;" d="M220.038,32.419c0-1.6,0-2.4,0-2.4s-65.6,0-62.8,62.8c6.4,0.4,12.4,0,17.6-1.2
	C173.238,50.819,200.838,36.819,220.038,32.419z"/>
<path style="fill:#561900;" d="M6.038,292.419h304c3.6,0,6-2.8,6-6v-193.6c0-3.6-2.8-6-6-6h-109.6c19.6-15.2,26-40.8,26-56.8
	c0-1.6-0.8-3.2-2-4.4c-1.2-1.2-2.8-2-4.4-2c-1.2,0-32.8,0.4-53.2,21.2c-4,4-6.8,8.4-9.6,13.6c-2.4-4.8-5.6-9.6-9.6-13.6
	c-20-21.2-52-21.2-53.2-21.2c-3.6,0-6,2.8-6,6c0,1.2,0,32,20.4,52.4c1.6,1.6,3.6,3.2,5.2,4.8h-108c-3.6,0-6,2.8-6,6v193.6
	C-0.362,289.619,2.438,292.419,6.038,292.419z M304.038,214.419h-292v-49.6h292V214.419z M12.038,280.019v-53.2h292v53.6h-292
	V280.019z M176.038,53.619c11.6-12,28.4-16,37.6-16.8c-1.2,9.2-4.8,25.2-16.4,36.8c-8.4,8.4-19.2,12.8-33.2,13.2c0-2-0.4-4-0.4-6
	C165.238,69.619,169.238,60.419,176.038,53.619z M101.638,36.419c9.2,1.2,26,4.8,37.6,16.8c6.8,7.2,10.8,16,12,27.2
	c-0.4,2-0.4,4-0.4,6C111.638,84.819,103.238,51.219,101.638,36.419z M304.038,98.819v53.6h-292v-53.6H304.038z"/>
<g>
</g>
<g>
</g>
<g>
</g>
<g>
</g>
<g>
</g>
<g>
</g>
<g>
</g>
<g>
</g>
<g>
</g>
<g>
</g>
<g>
</g>
<g>
</g>
<g>
</g>
<g>
</g>
<g>
</g>
</svg>
