<?xml version="1.0" encoding="iso-8859-1"?>
<!-- Generator: Adobe Illustrator 19.0.0, SVG Export Plug-In . SVG Version: 6.00 Build 0)  -->
<svg version="1.1" id="Capa_1" xmlns="http://www.w3.org/2000/svg" xmlns:xlink="http://www.w3.org/1999/xlink" x="0px" y="0px"
	 viewBox="0 0 353.609 353.609" style="enable-background:new 0 0 353.609 353.609;" xml:space="preserve">
<path style="fill:#91C154;" d="M177.6,91.404c2.4-55.6-55.2-55.2-55.2-55.2S122,93.804,177.6,91.404z"/>
<path style="fill:#B1D37C;" d="M140.4,39.004c-10-2.8-18.4-2.8-18.4-2.8s0,58,55.2,55.2c0-0.4,0-1.2,0-1.6
	C146,81.804,141.2,49.004,140.4,39.004z"/>
<path style="fill:#91C154;" d="M176.8,91.404c-2.4-55.6,55.2-55.2,55.2-55.2S232.4,93.804,176.8,91.404z"/>
<path style="fill:#B1D37C;" d="M232,38.604c0-1.6,0-2.4,0-2.4s-58,0-55.2,55.2c6,0.4,11.6-0.4,16.4-1.2
	C192.4,55.404,215.6,43.004,232,38.604z"/>
<path style="fill:#F7D57B;" d="M38.8,265.404v-129.2c0-24.8,20-44.8,44.8-44.8h186c24.8,0,44.8,20,44.8,44.8v129.2H38.8z"/>
<path style="fill:#F9E4AB;" d="M107.6,91.404h-24c-24.8,0-44.8,20-44.8,44.8v129.2h24v-129.2C62.8,111.404,83.2,91.404,107.6,91.404
	z"/>
<path style="fill:#EB573B;" d="M40.4,137.804H72v48.8c0,0,11.2,13.6,27.2,5.2s10-16,10-16s5.6,10.8,18,5.2c12.4-6,10.4-24,10.4-24
	v-16.4h25.6v43.2c0,0,2.8,16.8,14.8,13.6c12-3.6,13.6-11.2,13.6-11.2v-46.4h123.2c0,0-0.8-40.4-28-45.6c-27.2-5.2-48-6-48-6H73.2
	C73.2,88.204,40.4,102.604,40.4,137.804z"/>
<path style="fill:#F1705A;" d="M107.6,91.404h-24c-11.6,0-22,4.4-30,11.6c-6.8,8-13.2,19.2-13.2,34.4h22.8v-1.2
	C62.8,111.404,83.2,91.404,107.6,91.404z"/>
<path style="fill:#F9F6CD;" d="M324.8,318.204H29.6c-12.4,0-22.8-10.4-22.8-22.8s10.4-22.8,22.8-22.8h295.2
	c12.4,0,22.8,10.4,22.8,22.8C347.6,307.804,337.6,318.204,324.8,318.204z"/>
<path style="fill:#FFFFFF;" d="M43.2,295.004c0-12.4,10.4-22.8,22.8-22.8H29.6c-12.4,0-22.8,10.4-22.8,22.8s10.4,22.8,22.8,22.8H66
	C53.2,318.204,43.2,307.804,43.2,295.004z"/>
<path style="fill:#561900;" d="M324.8,266.204h-4.4c0-0.4,0-0.4,0-0.8v-129.2c0-28-22.8-51.2-51.2-51.2h-52.4
	c16-13.6,21.2-35.6,21.6-49.2c0-1.6-0.8-3.2-2-4.4c-1.2-1.2-2.8-2-4.4-2c-1.2,0-29.2,0.4-47.2,18.8c-3.2,3.2-5.6,6.8-7.6,10.8
	c-2-4-4.8-7.6-7.6-10.8c-18-18.8-46-18.8-47.2-18.8c-3.6,0-6,2.8-6,6c0,1.2,0,28.4,18,46.4c1.2,1.2,2,2,3.2,2.8h-54
	c-28,0-51.2,22.8-51.2,51.2v129.2c0,0.4,0,0.4,0,0.8h-3.2c-16,0-29.2,13.2-29.2,29.2s13.2,29.2,29.2,29.2h295.2
	c16,0,29.2-13.2,29.2-29.2C354,279.004,340.8,266.204,324.8,266.204z M194,57.404c9.6-10,23.6-13.6,31.6-14.4
	c-1.2,8-4.4,21.2-14,30.8c-6.8,6.8-16.4,10.8-27.6,11.2c0-1.2,0-2.4-0.4-4C184.4,71.404,188,63.404,194,57.404z M128.8,42.604
	c8,1.2,22,4.4,31.6,14.4c6,6,9.2,14.4,10.4,24c0,1.2-0.4,2.4-0.4,4C138.4,83.404,130.8,55.804,128.8,42.604z M83.6,97.404h186
	c20,0,36.8,15.6,38.4,35.2H190c-3.6,0-6,2.8-6,6v44.4c0,5.2-3.2,9.2-7.2,9.2c-4,0-7.2-4-7.2-9.2v-44c0-3.6-2.8-6-6-6h-28.4
	c-3.6,0-6,2.8-6,6v27.6c0,4.8-3.2,9.2-7.2,9.2s-7.2-4-7.2-9.2v-23.2v-4c0-3.6-2.8-6-6-6c-3.6,0-6,2.8-6,6v4v23.2v11.6
	c0,6.4-5.2,11.2-11.2,11.2c-6.4,0-11.2-5.2-11.2-11.2v-34.8c0-0.8,1.2-10.4-5.6-10.4H45.2C46.8,113.004,63.6,97.404,83.6,97.404z
	 M44.8,265.404v-120h22v32.8c0,13.2,10.8,23.6,23.6,23.6c10.4,0,19.2-6.8,22.4-16c2.8,1.6,5.6,2.4,8.8,2.4
	c10.8,0,19.6-9.6,19.6-21.6v-21.2h16v38c0,12,8.8,21.6,19.6,21.6s19.6-9.6,19.6-21.6v-38h112v120c0,0.4,0,0.4,0,0.8H44.8
	C44.8,265.804,44.8,265.804,44.8,265.404z M324.8,311.804H29.6c-9.2,0-16.8-7.6-16.8-16.8c0-9.2,7.6-16.8,16.8-16.8h295.2
	c9.2,0,16.8,7.6,16.8,16.8C341.6,304.204,334,311.804,324.8,311.804z"/>
<g>
</g>
<g>
</g>
<g>
</g>
<g>
</g>
<g>
</g>
<g>
</g>
<g>
</g>
<g>
</g>
<g>
</g>
<g>
</g>
<g>
</g>
<g>
</g>
<g>
</g>
<g>
</g>
<g>
</g>
</svg>
