<?xml version="1.0" encoding="iso-8859-1"?>
<!-- Generator: Adobe Illustrator 19.0.0, SVG Export Plug-In . SVG Version: 6.00 Build 0)  -->
<svg version="1.1" id="Capa_1" xmlns="http://www.w3.org/2000/svg" xmlns:xlink="http://www.w3.org/1999/xlink" x="0px" y="0px"
	 viewBox="0 0 308.8 308.8" style="enable-background:new 0 0 308.8 308.8;" xml:space="preserve">
<path style="fill:#F5B31F;" d="M154.4,6.4c-82,0-148,66.4-148,148c0,82,66.4,148,148,148s148-66.4,148-148
	C302.4,72.4,236.4,6.4,154.4,6.4z M154.4,208c-29.6,0-53.6-24-53.6-53.6s24-53.6,53.6-53.6s53.6,24,53.6,53.6S184,208,154.4,208z"/>
<g>
	<path style="fill:#F7CA63;" d="M167.2,206.4c4,1.2,8.4,1.6,12.8,1.6c29.6,0,53.6-24,53.6-53.6s-24-53.6-53.6-53.6
		c-4.4,0-8.8,0.8-12.8,1.6c23.2,5.6,40.8,26.8,40.8,52C208,179.6,190.4,200.4,167.2,206.4z"/>
	<path style="fill:#F7CA63;" d="M32,154.4C32,76.8,91.6,13.2,167.2,6.8c-4-0.4-8.4-0.4-12.8-0.4c-82,0-148,66.4-148,148
		c0,82,66.4,148,148,148c4.4,0,8.8-0.4,12.8-0.4C91.6,295.6,32,232,32,154.4z"/>
</g>
<g>
	<path style="fill:#561900;" d="M154.4,0C69.2,0,0,69.2,0,154.4s69.2,154.4,154.4,154.4s154.4-69.2,154.4-154.4S239.6,0,154.4,0z
		 M154.4,296.4c-78.4,0-142-63.6-142-142s63.6-142,142-142s142,63.6,142,142S232.8,296.4,154.4,296.4z"/>
	<path style="fill:#561900;" d="M154.4,94.8c-32.8,0-59.6,26.8-59.6,59.6s26.8,59.6,59.6,59.6s59.6-26.8,59.6-59.6
		S187.2,94.8,154.4,94.8z M154.4,201.6c-26,0-47.2-21.2-47.2-47.2s21.2-47.2,47.2-47.2s47.2,21.2,47.2,47.2S180.4,201.6,154.4,201.6
		z"/>
</g>
<path style="fill:#F5B31F;" d="M118.4,64c1.2,2,3.2,2.8,5.2,2.8c1.2,0,2.4-0.4,3.2-0.8c2.8-2,3.6-5.6,2-8.4L118,40.8
	c-2-2.8-5.6-3.6-8.4-2c-2.8,2-3.6,5.6-2,8.4L118.4,64z"/>
<path style="fill:#EB573B;" d="M75.6,88L58.8,98.8c-2.8,2-3.6,5.6-2,8.4c1.2,2,3.2,2.8,5.2,2.8c1.2,0,2.4-0.4,3.2-0.8l17.2-10.8
	c2.8-2,3.6-5.6,2-8.4C82.4,87.2,78.4,86.4,75.6,88z"/>
<g>
	<path style="fill:#F9F6CD;" d="M180,75.6c1.2,0,2.4-0.4,3.2-0.8L200,64c2.8-2,3.6-5.6,2-8.4c-2-2.8-5.6-3.6-8.4-2l-16.8,10.8
		c-2.8,2-3.6,5.6-2,8.4C176,74.4,178,75.6,180,75.6z"/>
	<path style="fill:#F9F6CD;" d="M58.8,177.6L42,188.4c-2.8,2-3.6,5.6-2,8.4c1.2,2,3.2,2.8,5.2,2.8c1.2,0,2.4-0.4,3.2-0.8L65.2,188
		c2.8-2,3.6-5.6,2-8.4C65.2,176.8,61.6,175.6,58.8,177.6z"/>
</g>
<path style="fill:#EB573B;" d="M218,104.8l19.6,4.4c0.4,0,0.8,0,1.2,0c2.8,0,5.2-2,6-4.8c0.8-3.2-1.2-6.8-4.8-7.2l-19.6-4.4
	c-3.2-0.8-6.8,1.2-7.2,4.8C212.8,100.8,214.8,104,218,104.8z"/>
<path style="fill:#F9F6CD;" d="M220.8,226.4c-3.2-0.8-6.8,1.2-7.6,4.4l-4.8,19.6c-0.8,3.2,1.2,6.8,4.4,7.6c0.4,0,1.2,0,1.6,0
	c2.8,0,5.2-2,6-4.8l4.8-19.6C226.4,230.4,224.4,227.2,220.8,226.4z"/>
<g>
	<path style="fill:#EB573B;" d="M144.4,230.4c-2-2.8-5.6-3.6-8.4-2c-2.8,2-3.6,5.6-2,8.4l10.8,16.8c1.2,2,3.2,2.8,5.2,2.8
		c1.2,0,2.4-0.4,3.2-0.8c2.8-2,3.6-5.6,2-8.4L144.4,230.4z"/>
	<path style="fill:#EB573B;" d="M238.8,176.4c-2-2.8-5.6-3.6-8.4-2c-2.8,2-3.6,5.6-2,8.4l10.8,16.8c1.2,2,3.2,2.8,5.2,2.8
		c1.2,0,2.4-0.4,3.2-0.8c2.8-2,3.6-5.6,2-8.4L238.8,176.4z"/>
</g>
<g>
</g>
<g>
</g>
<g>
</g>
<g>
</g>
<g>
</g>
<g>
</g>
<g>
</g>
<g>
</g>
<g>
</g>
<g>
</g>
<g>
</g>
<g>
</g>
<g>
</g>
<g>
</g>
<g>
</g>
</svg>
