<?xml version="1.0" encoding="iso-8859-1"?>
<!-- Generator: Adobe Illustrator 19.0.0, SVG Export Plug-In . SVG Version: 6.00 Build 0)  -->
<svg version="1.1" id="Capa_1" xmlns="http://www.w3.org/2000/svg" xmlns:xlink="http://www.w3.org/1999/xlink" x="0px" y="0px"
	 viewBox="0 0 364.013 364.013" style="enable-background:new 0 0 364.013 364.013;" xml:space="preserve">
<path style="fill:#F7D57B;" d="M201.6,138.807c0-40.4-32.8-73.2-73.2-73.2H79.6c-40.4,0-73.2,32.8-73.2,73.2
	c0,17.6,6,33.6,16.4,46.4v113.6h162.4v-114C195.6,172.407,201.6,156.407,201.6,138.807z"/>
<path style="fill:#F5B31F;" d="M285.2,65.607h-32.4H128.4c40.4,0,73.2,32.8,73.2,73.2c0,17.6-6,33.6-16.4,46.4v113.6H342v-114
	c10.4-12.8,16.4-28.8,16.4-46.4C358.4,98.407,325.6,65.607,285.2,65.607z"/>
<path style="fill:#F7CA63;" d="M225.2,138.807c0-40.4-32.8-73.2-73.2-73.2h-23.6c40.4,0,73.2,32.8,73.2,73.2
	c0,17.6-6,33.6-16.4,46.4v113.6h23.6v-114C219.2,172.407,225.2,156.407,225.2,138.807z"/>
<path style="fill:#F9E4AB;" d="M32,138.807c0-40.4,32.8-73.2,73.2-73.2h-26c-40,0-72.8,32.8-72.8,73.2c0,17.6,6,33.6,16.4,46.4
	v113.6h26v-114C38.4,172.407,32,156.407,32,138.807z"/>
<path style="fill:#561900;" d="M285.2,59.207H128.4H104H79.6c-43.6,0-79.6,35.6-79.6,79.6c0,17.6,6,34.4,16.4,48.4v111.6
	c0,3.6,2.8,6,6,6h162.4h156.8c3.6,0,6-2.8,6-6v-111.6c10.8-14,16.4-30.8,16.4-48.4C364.8,94.807,329.2,59.207,285.2,59.207z
	 M27.6,181.207c-9.6-12-15.2-27.2-15.2-42.4c0-36.8,30-67.2,67.2-67.2H104h24.4c36.8,0,67.2,30,67.2,67.2c0,15.2-5.2,30.4-15.2,42.4
	c-0.4,0.4-0.4,0.8-0.4,0.8c0,0.4-0.4,0.4-0.4,0.8c-0.4,0.8-0.4,1.6-0.4,2.4v107.6H28.8v-108C28.8,183.607,28.4,182.007,27.6,181.207
	z M191.2,292.407v-101.2h144.4v101.2L191.2,292.407L191.2,292.407z M338.8,178.807h-142c7.2-12,10.8-26,10.8-40
	c0-28.4-14.8-52.8-37.2-67.2h114.4c36.8,0,67.2,30,67.2,67.2C352.4,153.207,347.6,167.207,338.8,178.807z"/>
<path style="fill:#F5B31F;" d="M352.4,138.807c0-36.8-30-67.2-67.2-67.2H170.8c22.4,14,37.2,38.8,37.2,67.2c0,14-4,28-10.8,40h142
	C347.6,167.207,352.4,153.207,352.4,138.807z"/>
<path style="fill:#F7CA63;" d="M186.8,71.607h-16.4c22.4,14,37.2,38.8,37.2,67.2c0,14-4,28-10.8,40h16.4c7.2-12,10.8-26,10.8-40
	C224,110.407,209.2,85.607,186.8,71.607z"/>
<g>
</g>
<g>
</g>
<g>
</g>
<g>
</g>
<g>
</g>
<g>
</g>
<g>
</g>
<g>
</g>
<g>
</g>
<g>
</g>
<g>
</g>
<g>
</g>
<g>
</g>
<g>
</g>
<g>
</g>
</svg>
