<?xml version="1.0" encoding="iso-8859-1"?>
<!-- Generator: Adobe Illustrator 19.0.0, SVG Export Plug-In . SVG Version: 6.00 Build 0)  -->
<svg version="1.1" id="Capa_1" xmlns="http://www.w3.org/2000/svg" xmlns:xlink="http://www.w3.org/1999/xlink" x="0px" y="0px"
	 viewBox="0 0 327.251 327.251" style="enable-background:new 0 0 327.251 327.251;" xml:space="preserve">
<path style="fill:#F5B31F;" d="M17.657,320.851l94.8-314.8c0,0,142,18.4,197.6,170.8L17.657,320.851z"/>
<path style="fill:#F7CA63;" d="M136.857,12.051c-15.2-4.4-24.8-5.6-24.8-5.6l-94.8,314.8l30.8-15.2L136.857,12.051z"/>
<path style="fill:#F7D57B;" d="M112.057,6.051l-9.6,32.4c29.2,10.8,71.2,30.8,104.8,64.4c33.6,33.2,55.6,67.6,68,90.8l34-16.8
	C254.057,24.851,112.057,6.051,112.057,6.051z"/>
<path style="fill:#F9E4AB;" d="M126.057,48.451l10.8-36.4l0,0c-15.2-4.4-24.8-5.6-24.8-5.6l-9.6,32.4
	C109.657,41.251,117.657,44.451,126.057,48.451z"/>
<circle style="fill:#AC6635;" cx="137.657" cy="123.251" r="31.2"/>
<path style="fill:#B97D58;" d="M121.257,123.251c0-14.8,10-26.8,23.6-30c-2.4-0.4-4.8-0.8-7.2-0.8c-17.2,0-31.2,14-31.2,31.2
	s14,31.2,31.2,31.2c2.4,0,5.2-0.4,7.2-0.8C131.257,150.051,121.257,138.051,121.257,123.251z"/>
<circle style="fill:#AC6635;" cx="109.657" cy="218.451" r="24"/>
<path style="fill:#B97D58;" d="M99.257,218.451c0-10.8,7.2-20,17.2-22.8c-2-0.8-4.4-1.2-6.8-1.2c-13.2,0-24,10.8-24,24
	s10.8,24,24,24c2.4,0,4.8-0.4,6.8-1.2C106.457,238.451,99.257,229.251,99.257,218.451z"/>
<circle style="fill:#AC6635;" cx="183.257" cy="187.651" r="14.8"/>
<path style="fill:#B97D58;" d="M179.657,187.651c0-6.4,4-11.6,9.2-13.6c-1.6-0.8-3.6-1.2-5.6-1.2c-8,0-14.8,6.8-14.8,14.8
	s6.8,14.8,14.8,14.8c2,0,3.6-0.4,5.6-1.2C183.257,199.251,179.657,194.051,179.657,187.651z"/>
<g>
	<path style="fill:#561900;" d="M20.457,326.451l259.6-128l0,0l0,0l32.4-16c2.8-1.2,4-4.8,3.2-7.6c-56-154-201.2-174.4-202.4-174.8
		c-3.2-0.4-6,1.6-6.8,4.4l-94.8,314.8c-0.8,2.4,0,4.8,2,6.4c1.2,0.8,2.4,1.6,4,1.6C18.457,327.251,19.257,326.851,20.457,326.451z
		 M116.457,13.251c25.2,5.2,136.8,34.4,185.6,160.8l-22.4,10.8c-16.4-31.6-37.6-59.6-62.8-82.8c-38-35.2-78.4-54.4-107.6-64.8
		L116.457,13.251z M105.657,48.851c28,10,66.4,28.4,102.8,62c24.4,22.4,44.4,49.2,60.4,79.2l-241.2,119.2L105.657,48.851z"/>
	<path style="fill:#561900;" d="M137.657,160.451c20.4,0,37.2-16.8,37.2-37.2s-16.8-37.2-37.2-37.2s-37.2,16.8-37.2,37.2
		C100.057,143.651,116.857,160.451,137.657,160.451z M137.657,98.451c13.6,0,24.8,11.2,24.8,24.8s-11.2,24.8-24.8,24.8
		s-24.8-11.2-24.8-24.8S123.657,98.451,137.657,98.451z"/>
	<path style="fill:#561900;" d="M109.657,188.051c-16.8,0-30,13.6-30,30c0,16.8,13.6,30,30,30c16.8,0,30-13.6,30-30
		S126.057,188.051,109.657,188.051z M109.657,236.451c-10,0-18-8-18-18s8-18,18-18s18,8,18,18
		C127.257,228.451,119.257,236.451,109.657,236.451z"/>
	<path style="fill:#561900;" d="M183.257,166.851c-11.6,0-20.8,9.2-20.8,20.8c0,11.6,9.2,20.8,20.8,20.8s20.8-9.2,20.8-20.8
		C204.457,176.051,194.857,166.851,183.257,166.851z M183.257,196.451c-4.8,0-8.4-4-8.4-8.4s4-8.4,8.4-8.4s8.4,4,8.4,8.4
		S188.057,196.451,183.257,196.451z"/>
</g>
<g>
</g>
<g>
</g>
<g>
</g>
<g>
</g>
<g>
</g>
<g>
</g>
<g>
</g>
<g>
</g>
<g>
</g>
<g>
</g>
<g>
</g>
<g>
</g>
<g>
</g>
<g>
</g>
<g>
</g>
</svg>
