<?xml version="1.0" encoding="iso-8859-1"?>
<!-- Generator: Adobe Illustrator 19.0.0, SVG Export Plug-In . SVG Version: 6.00 Build 0)  -->
<svg version="1.1" id="Capa_1" xmlns="http://www.w3.org/2000/svg" xmlns:xlink="http://www.w3.org/1999/xlink" x="0px" y="0px"
	 viewBox="0 0 318.4 318.4" style="enable-background:new 0 0 318.4 318.4;" xml:space="preserve">
<rect x="6.4" y="180.4" style="fill:#AC6635;" width="305.6" height="50.8"/>
<polygon style="fill:#91C056;" points="312,180.4 254.8,180.4 222,204.4 186.8,180.4 6.4,180.4 6.4,129.6 312,129.6 "/>
<g>
	<path style="fill:#F5B31F;" d="M312,129.6L312,129.6c0-60-49.6-108.4-110.8-108.4h-84.4C55.6,21.2,6,69.6,6,129.6l0,0H312z"/>
	<path style="fill:#F5B31F;" d="M159.2,298h-116c-20.4,0-36.8-16.4-36.8-36.8l0,0v-30h152.8H312v30l0,0c0,20.4-16.4,36.8-36.8,36.8
		H159.2z"/>
</g>
<rect x="6.4" y="180.4" style="fill:#B97D58;" width="25.6" height="50.8"/>
<rect x="6.4" y="129.6" style="fill:#B1D37C;" width="25.6" height="50.8"/>
<g>
	<path style="fill:#F7CA63;" d="M142.8,21.2h-25.6C56,21.2,6.4,69.6,6.4,129.6H32C32,70,81.6,21.2,142.8,21.2z"/>
	<path style="fill:#F7CA63;" d="M32,261.2v-30H6.4v30c0,20.4,16.4,36.8,36.8,36.8h25.6C48.4,298,32,281.6,32,261.2z"/>
</g>
<path style="fill:#561900;" d="M318.4,231.2V129.6c0-63.2-52.4-114.8-116.8-114.8h-84.8C52.4,14.8,0,66.4,0,129.6v101.2v30
	c0,23.6,19.2,42.8,42.8,42.8h232c23.6,0,42.8-19.2,42.8-42.8v-29.6H318.4z M306,174h-52.4c-1.6,0-2.8,0.4-4,1.6l-28.4,24l-28.8-24
	c-1.2-0.8-2.4-1.6-4-1.6h-176v-38.4H306V174z M12.4,186.4H186l31.2,26c1.2,0.8,2.4,1.6,4,1.6s2.8-0.4,4-1.6l30.8-26h50v38.4H12.4
	V186.4z M116.8,27.6h84.4c55.6,0,100.8,42.4,104.4,96H12.8C16,70,61.6,27.6,116.8,27.6z M306,261.2c0,16.8-13.6,30.8-30.8,30.8h-232
	c-16.8,0-30.8-13.6-30.8-30.8v-24H306V261.2z"/>
<g>
</g>
<g>
</g>
<g>
</g>
<g>
</g>
<g>
</g>
<g>
</g>
<g>
</g>
<g>
</g>
<g>
</g>
<g>
</g>
<g>
</g>
<g>
</g>
<g>
</g>
<g>
</g>
<g>
</g>
</svg>
