<?xml version="1.0" encoding="iso-8859-1"?>
<!-- Generator: Adobe Illustrator 17.1.0, SVG Export Plug-In . SVG Version: 6.00 Build 0)  -->
<!DOCTYPE svg PUBLIC "-//W3C//DTD SVG 1.1//EN" "http://www.w3.org/Graphics/SVG/1.1/DTD/svg11.dtd">
<svg version="1.1" id="back" xmlns="http://www.w3.org/2000/svg" preserveAspectRatio="none" xmlns:xlink="http://www.w3.org/1999/xlink" x="0px" y="0px"
	 viewBox="116 10 280 495" style="fill:#f5b31f" xml:space="preserve">
<g>
	<path d="M376,87.998V48c0-4.418-3.582-8-8-8h-39.997c-0.002,0-0.003,0-0.005,0h-39.995c-0.002,0-0.003,0-0.005,0h-39.995
		c-0.002,0-0.003,0-0.005,0H144c-4.418,0-8,3.582-8,8v15.998c0,0.001,0,0.003,0,0.005v39.995c0,0.001,0,0.003,0,0.005v39.995
		c0,0.001,0,0.003,0,0.005v39.995c0,0.001,0,0.003,0,0.005v39.995c0,0.001,0,0.003,0,0.005v39.995c0,0.001,0,0.003,0,0.005v39.995
		c0,0.001,0,0.003,0,0.005v39.995c0,0.001,0,0.003,0,0.005v39.995c0,0.001,0,0.003,0,0.005v39.995c0,0.001,0,0.003,0,0.005V464
		c0,4.418,3.582,8,8,8h224c4.418,0,8-3.582,8-8v-15.998c0-0.001,0-0.003,0-0.005v-39.995c0-0.001,0-0.003,0-0.005v-39.995
		c0-0.001,0-0.003,0-0.005v-39.995c0-0.001,0-0.003,0-0.005v-39.995c0-0.001,0-0.003,0-0.005v-39.995c0-0.001,0-0.003,0-0.005
		v-39.995c0-0.001,0-0.003,0-0.005v-39.995c0-0.001,0-0.003,0-0.005v-39.995c0-0.001,0-0.003,0-0.005V88.002
		C376,88.001,376,87.999,376,87.998z M307.314,456L152,300.687v-17.373L324.686,456H307.314z M267.313,456L152,340.687v-17.373
		L284.686,456H267.313z M227.313,456L152,380.687v-17.373L244.687,456H227.313z M187.313,456L152,420.687v-17.373L204.687,456
		H187.313z M152,203.313l208,208v17.373l-208-208V203.313z M152,180.687v-17.373l208,208v17.373L152,180.687z M152,140.687v-17.373
		l208,208v17.373L152,140.687z M152,100.687V83.313l208,208v17.373L152,100.687z M204.686,56L360,211.313v17.373L187.314,56H204.686
		z M227.314,56h17.373L360,171.313v17.373L227.314,56z M267.313,56h17.373L360,131.313v17.373L267.313,56z M307.313,56h17.373
		L360,91.313v17.373L307.313,56z M360,68.687L347.313,56H360V68.687z M164.686,56L360,251.313v17.373l-208-208V56H164.686z
		 M152,443.313L164.687,456H152V443.313z M347.314,456L152,260.687v-17.373l208,208V456H347.314z"/>
</g>
</svg>
