<?xml version="1.0" encoding="iso-8859-1"?>
<!-- Generator: Adobe Illustrator 19.0.0, SVG Export Plug-In . SVG Version: 6.00 Build 0)  -->
<svg version="1.1" id="Capa_1" xmlns="http://www.w3.org/2000/svg" xmlns:xlink="http://www.w3.org/1999/xlink" x="0px" y="0px"
	 viewBox="0 0 444.4 444.4" style="enable-background:new 0 0 444.4 444.4;" xml:space="preserve">
<path style="fill:#F5B31F;" d="M438,233.4c0,32.8-28,59.6-62,59.6H68c-34.4,0-62-26.8-62-59.6V211c0-32.8,28-59.6,62-59.6h308.4
	c34,0,62,26.8,62,59.6v22.4H438z"/>
<path style="fill:#F7CA63;" d="M28.8,233.4V211c0-32.8,28-59.6,62-59.6H68c-34.4,0-62,26.8-62,59.6v22.4C6,266.2,34,293,68,293h22.8
	C56.8,293,28.8,266.2,28.8,233.4z"/>
<rect x="6.8" y="202.6" style="fill:#EB573B;" width="431.6" height="39.6"/>
<rect x="6.8" y="202.6" style="fill:#F1705A;" width="22" height="39.6"/>
<rect x="51.6" y="198.2" style="fill:#91C056;" width="342.8" height="22.4"/>
<path style="fill:#561900;" d="M376,145.4H68C30.4,145.4,0,175,0,211v22.4C0,269.8,30.4,299,68,299h308.4c37.6,0,68-29.6,68-65.6
	V211C444.4,174.6,413.6,145.4,376,145.4z M68,157.4h308.4c25.6,0,46.8,16.4,53.6,38.8H14.4C20.8,173.8,42.4,157.4,68,157.4z
	 M12,233.4V211c0-0.8,0-1.6,0-2.4h31.6c2.8,12.4,14,21.6,27.2,21.6c8.8,0,16.4-4,21.6-10.4c5.2,6.4,12.8,10.4,21.6,10.4
	s16.4-4,21.6-10.4c5.2,6.4,12.8,10.4,21.6,10.4s16.4-4,21.6-10.4c5.2,6.4,12.8,10.4,21.6,10.4s16.4-4,21.6-10.4
	c5.2,6.4,12.8,10.4,21.6,10.4c8.8,0,16.4-4,21.6-10.4c5.2,6.4,12.8,10.4,21.6,10.4c8.8,0,16.4-4,21.6-10.4
	c5.2,6.4,12.8,10.4,21.6,10.4c8.8,0,16.4-4,21.6-10.4c5.2,6.4,12.8,10.4,21.6,10.4c13.2,0,24.4-9.2,27.2-21.6h31.2
	c0,0.8,0,1.6,0,2.4v22.4c0,0.8,0,1.6,0,2.4H12C12,235,12,234.2,12,233.4z M56.8,208.6h28.4c-2.4,5.6-8,9.2-14,9.2
	C64.8,217.8,59.2,214.2,56.8,208.6z M100,208.6h28.4c-2.4,5.6-8,9.2-14,9.2S102.4,214.2,100,208.6z M143.2,208.6h28.4
	c-2.4,5.6-8,9.2-14,9.2C151.2,217.8,145.6,214.2,143.2,208.6z M186.4,208.6h28.4c-2.4,5.6-8,9.2-14,9.2
	C194.4,217.8,188.8,214.2,186.4,208.6z M229.6,208.6H258c-2.4,5.6-8,9.2-14,9.2C237.6,217.8,232,214.2,229.6,208.6z M272.8,208.6
	h28.4c-2.4,5.6-8,9.2-14,9.2C280.8,217.8,275.2,214.2,272.8,208.6z M316,208.6h28.4c-2.4,5.6-8,9.2-14,9.2
	C324,217.8,318.4,214.2,316,208.6z M359.6,208.6H388c-2.4,5.6-8,9.2-14,9.2C367.2,217.8,361.6,214.2,359.6,208.6z M376,287H68
	c-25.6,0-46.8-16.4-53.6-38.8H430C423.2,270.6,401.6,287,376,287z"/>
<g>
</g>
<g>
</g>
<g>
</g>
<g>
</g>
<g>
</g>
<g>
</g>
<g>
</g>
<g>
</g>
<g>
</g>
<g>
</g>
<g>
</g>
<g>
</g>
<g>
</g>
<g>
</g>
<g>
</g>
</svg>
