<?xml version="1.0" encoding="iso-8859-1"?>
<!-- Generator: Adobe Illustrator 19.0.0, SVG Export Plug-In . SVG Version: 6.00 Build 0)  -->
<svg version="1.1" id="Capa_1" xmlns="http://www.w3.org/2000/svg" xmlns:xlink="http://www.w3.org/1999/xlink" x="0px" y="0px"
	 viewBox="0 0 291.2 291.2" style="enable-background:new 0 0 291.2 291.2;" xml:space="preserve">
<path style="fill:#F5B31F;" d="M281.2,91.6C281.2,44.4,220.4,6,145.6,6S10,44.4,10,91.6c0,20.4,0,87.6,0,108.4
	c0,47.2,60.8,85.6,135.6,85.6s135.6-38.4,135.6-85.6C281.2,179.2,281.2,112,281.2,91.6z"/>
<path style="fill:#F7CA63;" d="M38,199.6c0-20.4,0-87.6,0-108.4c0-44,53.2-80.4,121.6-84.8c-4.8-0.4-9.2-0.4-14-0.4
	C70.8,6,10,44.4,10,91.6c0,20.4,0,87.6,0,108.4c0,47.2,60.8,85.6,135.6,85.6c4.8,0,9.6,0,14-0.4C91.6,280.4,38,244,38,199.6z"/>
<path style="fill:#F7D57B;" d="M8,107.6l53.6,31.6c0,0-7.6,42.4,23.2,45.6c0,0,21.6-0.4,24.8-16.8c0,0,7.6,14.8,22,13.2
	c14.4-1.6,16.4-24.8,16.4-24.8s13.2,7.6,63.2-14s70-38,70-38v98.8c0,0-14,69.6-106.8,78s-136.8-23.6-153.2-48S8.4,194,8.4,194v-86.4
	H8z"/>
<path style="fill:#F9E4AB;" d="M38,199.6c0-13.6,0-47.2,0-74.4l-28-16.4c0,28.4,0,74.4,0,90.8c0,8.8,2,17.2,6,25.6
	c1.6,2.4,3.2,5.2,4.8,8c14.8,21.6,50.4,49.6,122.8,49.6C83.6,274.4,38,240.4,38,199.6z"/>
<ellipse style="fill:#F7D57B;" cx="144.8" cy="71.6" rx="32" ry="16.8"/>
<path style="fill:#F9E4AB;" d="M144.8,54.8c-3.2,0-6.4,0.4-9.6,0.8c12.8,2,22.4,8.4,22.4,15.6c0,7.6-9.6,13.6-22.4,15.6
	c3.2,0.4,6,0.8,9.6,0.8c17.6,0,32-7.6,32-16.8C176.4,62.4,162.4,54.8,144.8,54.8z"/>
<g>
	<path style="fill:#561900;" d="M145.6,291.2c78,0,142-41.2,142-91.6v-108C287.6,41.2,224,0,145.6,0S3.6,40.8,3.6,91.6V200
		C3.6,250.4,67.6,291.2,145.6,291.2z M16,118.4c8.4,6.8,21.6,16,38.8,24.4c0,0.4,0,0.4,0,0.8v18c0,17.2,14,31.2,31.2,31.2
		c10.4,0,20-5.2,25.6-13.2c4.4,4.4,10.4,7.6,17.2,7.6c13.2,0,24-10.8,24-24v-0.8c40.8-2.8,81.6-18.8,122-46.8v46.8
		C142,270.8,28.4,174,16,162.4L16,118.4L16,118.4z M145.6,12c71.2,0,129.6,35.6,129.6,79.2v8.8c-42.8,31.6-86,48-128.4,50
		c-3.2,0-6,2.8-6,6v6.4c0,6.4-5.2,11.6-11.6,11.6c-6.4,0-11.6-5.2-11.6-11.6v-0.8c0-3.6-2.8-6-6-6c-3.6,0-6,2.8-6,6
		c0,10.4-8.4,18.8-18.8,18.8c-10.4,0-18.8-8.4-18.8-18.8v-18c0-1.2,0-2,0.4-3.2c0.4-2.8-0.8-5.6-3.6-6.8c-26-12-42.8-26.4-48-31.6
		V91.2C16,47.6,74.4,12,145.6,12z M16,178.4c19.6,15.2,68,46.4,130.8,46.4c38.4,0,82.4-12,128.4-46.8v22c0,43.6-58,79.2-129.6,79.2
		S16,243.6,16,200C16,200,16,178.4,16,178.4z"/>
	<path style="fill:#561900;" d="M144.8,94.4c21.6,0,38-10,38-22.8s-16.4-22.8-38-22.8s-38,10-38,22.8
		C106.8,84.4,122.8,94.4,144.8,94.4z M144.8,61.2c15.6,0,25.6,6.4,25.6,10.4S160,82,144.8,82c-15.6,0-25.6-6.4-25.6-10.4
		C118.8,67.2,129.2,61.2,144.8,61.2z"/>
</g>
<g>
</g>
<g>
</g>
<g>
</g>
<g>
</g>
<g>
</g>
<g>
</g>
<g>
</g>
<g>
</g>
<g>
</g>
<g>
</g>
<g>
</g>
<g>
</g>
<g>
</g>
<g>
</g>
<g>
</g>
</svg>
