<?xml version="1.0" encoding="iso-8859-1"?>
<!-- Generator: Adobe Illustrator 19.0.0, SVG Export Plug-In . SVG Version: 6.00 Build 0)  -->
<svg version="1.1" id="Capa_1" xmlns="http://www.w3.org/2000/svg" xmlns:xlink="http://www.w3.org/1999/xlink" x="0px" y="0px"
	 viewBox="0 0 330.798 330.798" style="enable-background:new 0 0 330.798 330.798;" xml:space="preserve">
<path style="fill:#F7D57B;" d="M182.599,70.798c0,0,72.4-14,118.8,51.2v151.2l-272.8,50.8l0.8-150l108.8-73.6L182.599,70.798z"/>
<path style="fill:#F9E4AB;" d="M62.599,173.998l108.8-73.6l44.4-30c0,0,0.4,0,0.8,0c-20-2.4-34,0-34,0l-44.4,30l-108.8,73.6
	l-0.4,150l33.2-6L62.599,173.998z"/>
<polygon style="fill:#EB573B;" points="29.399,173.998 301.799,121.998 301.799,196.798 28.999,243.998 "/>
<polygon style="fill:#F1705A;" points="62.199,237.998 62.599,173.998 75.799,165.198 29.399,173.998 28.999,243.998 "/>
<circle style="fill:#EB573B;" cx="165.399" cy="95.598" r="27.6"/>
<path style="fill:#F1705A;" d="M152.599,95.598c0-12.8,8.8-23.2,20.4-26.8c-2.4-0.8-4.8-1.2-7.2-1.2c-15.2,0-27.6,12.4-27.6,27.6
	c0,15.2,12.4,27.6,27.6,27.6c2.4,0,4.8-0.4,7.2-1.2C160.999,119.198,152.599,108.398,152.599,95.598z"/>
<path style="fill:#561900;" d="M24.199,170.398C24.199,170.798,24.199,170.798,24.199,170.398c-0.8,0.8-0.8,1.6-1.2,2.4v0.4
	c0,0.4,0,0.8,0,1.2l-0.4,150c0,2,0.8,3.6,2.4,4.8c1.2,0.8,2.4,1.6,4,1.6c0.4,0,0.8,0,1.2,0l272.8-50.8c2.8-0.4,5.2-3.2,5.2-6v-152
	c0-0.4,0-0.4,0-0.8v-0.4c0,0,0,0,0-0.4s-0.4-1.2-0.8-1.6v-0.4l0,0c-48.8-68-125.2-54-125.6-54s-1.2,0.4-1.6,0.8
	c-2.4-1.2-5.2-2-8-2.8c0.8-12.4,4-43.2,23.6-50.4c3.2-1.2,4.8-4.8,3.6-8c-1.2-3.2-4.8-4.8-8-3.6c-26.8,9.6-31.2,47.2-31.6,62
	c-15.6,2.8-28,16.8-28,33.2c0,0.8,0,1.2,0,2l-106,71.6C25.399,169.598,24.599,169.998,24.199,170.398z M295.799,191.598l-260.4,46.4
	v-58.4l260-50v62H295.799z M34.999,316.398v-66l260.4-46.4v64L34.999,316.398z M165.399,74.398c12,0,21.6,9.6,21.6,21.6
	s-9.6,21.6-21.6,21.6s-21.6-9.6-21.6-21.6C144.199,83.998,153.799,74.398,165.399,74.398z M165.399,129.598c18.8,0,34-15.2,34-34
	c0-7.6-2.4-14.4-6.8-20c18.8-1.2,64,0.8,98,42l-232.8,44.8l77.2-52C140.599,121.598,152.199,129.598,165.399,129.598z"/>
<g>
</g>
<g>
</g>
<g>
</g>
<g>
</g>
<g>
</g>
<g>
</g>
<g>
</g>
<g>
</g>
<g>
</g>
<g>
</g>
<g>
</g>
<g>
</g>
<g>
</g>
<g>
</g>
<g>
</g>
</svg>
