<?xml version="1.0" encoding="iso-8859-1"?>
<!-- Generator: Adobe Illustrator 19.0.0, SVG Export Plug-In . SVG Version: 6.00 Build 0)  -->
<svg version="1.1" id="Capa_1" xmlns="http://www.w3.org/2000/svg" xmlns:xlink="http://www.w3.org/1999/xlink" x="0px" y="0px"
	 viewBox="0 0 369.598 369.598" style="enable-background:new 0 0 369.598 369.598;" xml:space="preserve">
<path style="fill:#EB573B;" d="M295.522,217.598h-279.2c0,49.2,25.6,92.8,64.4,117.6h-2v28h154.8v-29.6
	C271.122,308.798,295.522,265.998,295.522,217.598z"/>
<path style="fill:#F1705A;" d="M104.322,335.198c-38.8-24.8-64.4-68-64.4-117.6h-23.6c0,49.2,25.6,92.8,64.4,117.6h-2v28h23.6v-28
	H104.322z"/>
<rect x="78.722" y="335.198" style="fill:#F7D57B;" width="154.8" height="28"/>
<rect x="78.722" y="335.198" style="fill:#F9E4AB;" width="18.8" height="28"/>
<path style="fill:#561900;" d="M72.322,337.198v26.4c0,3.6,2.8,6,6,6h154.8c3.6,0,6-2.8,6-6v-26.4c39.2-27.2,62.4-71.6,62.4-119.6
	c0-3.6-2.8-6-6-6h-150c2.8-3.2,5.2-8,5.2-14.8c0-9.2-4.4-14-7.6-17.6c-2.8-3.2-4.4-5.2-4.4-9.6c0-4.4,1.6-6.4,4.4-9.6
	c3.2-3.6,7.6-8.4,7.6-17.6c0-7.2-2.8-11.6-5.6-15.2l209.2-46.8c3.2-0.8,5.6-4,4.8-7.2c-0.8-3.2-4-5.6-7.2-4.8l-213.2,47.6
	c0-0.4,0-0.4,0-0.8c0-4.4,1.6-6.4,4.4-9.6c3.2-3.6,7.6-8.4,7.6-17.6c0-1.2-0.4-2-0.8-2.8l191.6-73.2c3.2-1.2,4.8-4.8,3.6-8
	c-1.2-3.2-4.8-4.8-8-3.6l-221.2,84.4c-1.2-1.6-2.8-2.8-5.2-2.8c-3.6,0-6,2.8-6,6c0,0.4,0,0.8,0,1.2l-29.2,11.2
	c2-3.2,3.6-6.8,3.6-12.4c0-3.6-2.8-6-6-6c-3.6,0-6,2.8-6,6c0,4.4-1.6,6.4-4.4,9.6c-2.4,2.4-5.2,5.6-6.8,10.4l-28.4,10.8
	c-3.2,1.2-4.8,4.8-3.6,8c0.8,2.4,3.2,4,5.6,4c0.8,0,1.6,0,2.4-0.4l23.6-9.2c1.6,5.2,4.4,8.8,7.2,11.6c0,0,0,0,0.4,0.4l-35.6,7.6
	c-3.2,0.8-5.6,4-4.8,7.2c0.8,2.8,3.2,4.8,6,4.8c0.4,0,0.8,0,1.2,0l36-8c-0.4,2.8-2,4.4-4.4,6.8c-3.2,3.6-7.6,8.4-7.6,17.6
	c0,9.2,4.4,14,7.6,17.6c2.8,3.2,4.4,5.2,4.4,9.6s-1.6,6.4-4.4,9.6c-1.2,1.6-2.8,3.2-4.4,5.2h-40.8c-3.6,0-6,2.8-6,6
	C10.322,265.598,33.522,309.598,72.322,337.198z M84.722,357.198v-16h142.4v16H84.722z M133.922,132.798c2.8,3.2,4.4,5.2,4.4,9.6
	c0,4.4-1.6,6.4-4.4,9.6c-3.2,3.6-7.6,8.4-7.6,17.6c0,9.2,4.4,14,7.6,17.6c2.8,3.2,4.4,5.2,4.4,9.6s-1.6,6.4-4.4,9.6
	c-1.2,1.6-2.8,3.2-4.4,5.2h-18c2.8-3.2,5.2-8,5.2-14.8c0-9.2-4.4-14-7.6-17.6c-2.8-3.2-4.4-5.2-4.4-9.6c0-4.4,1.6-6.4,4.4-9.6
	c3.2-3.6,7.6-8.4,7.6-17.6c0-3.2-0.4-6-1.6-8.4l16.4-3.6C132.322,131.198,133.122,131.998,133.922,132.798z M133.922,97.598
	c-3.2,3.6-7.6,8.4-7.6,17.6c0,1.2,0,2.4,0.4,3.6l-18.8,4c-2-2.4-3.2-4.4-3.2-8c0-4.4,1.6-6.4,4.4-9.6c1.6-2,3.6-4,5.2-7.2l24-9.2
	C137.922,92.798,136.322,94.798,133.922,97.598z M71.122,124.398c-2.4-2.8-4-4.4-4.4-7.6l27.2-10.4c-0.8,2.4-1.6,5.2-1.6,8.8
	c0,4.4,1.2,8,2.4,10.8l-19.2,4.4C73.922,127.998,72.322,125.998,71.122,124.398z M71.122,178.798c-2.8-3.2-4.4-5.2-4.4-9.6
	c0-4.4,1.6-6.4,4.4-9.6c3.2-3.6,7.6-8.4,7.6-17.6l0,0l24.4-5.6c0.8,1.6,1.6,3.2,1.6,5.6c0,4.4-1.6,6.4-4.4,9.6
	c-3.2,3.6-7.6,8.4-7.6,17.6c0,9.2,4.4,14,7.6,17.6c2.8,3.2,4.4,5.2,4.4,9.6s-1.6,6.4-4.4,9.6c-1.2,1.6-2.8,3.2-4.4,5.2h-22.4
	c2.8-3.2,5.2-8,5.2-14.8C78.722,187.598,74.322,182.398,71.122,178.798z M289.522,223.598c-2,42.4-24,81.2-59.2,104.8l-0.4,0.4
	h-147.2c-36-23.6-58-62.8-60-105.2H289.522z"/>
<g>
</g>
<g>
</g>
<g>
</g>
<g>
</g>
<g>
</g>
<g>
</g>
<g>
</g>
<g>
</g>
<g>
</g>
<g>
</g>
<g>
</g>
<g>
</g>
<g>
</g>
<g>
</g>
<g>
</g>
</svg>
