<?xml version="1.0" encoding="iso-8859-1"?>
<!-- Generator: Adobe Illustrator 19.0.0, SVG Export Plug-In . SVG Version: 6.00 Build 0)  -->
<svg version="1.1" id="Capa_1" xmlns="http://www.w3.org/2000/svg" xmlns:xlink="http://www.w3.org/1999/xlink" x="0px" y="0px"
	 viewBox="0 0 354.8 354.8" style="enable-background:new 0 0 354.8 354.8;" xml:space="preserve">
<path style="fill:#F5B31F;" d="M305.4,161.2c15.6-10.8,19.2-32.4,8.4-48c-10.8-15.6-32.4-19.2-48-8.4l-31.6,22
	c-0.4-0.8-0.8-1.2-1.2-2c10.4-12.4,16.8-28.4,16.8-46c0-40-32.4-72.4-72.4-72.4S105,38.8,105,78.8c0,17.6,6.4,33.6,16.8,46
	c-0.4,0.8-0.8,1.2-1.2,2l-31.6-22c-15.6-10.8-36.8-7.2-48,8.4c-10.8,15.6-7.2,37.2,8.4,48c0,0,51.6,26,60,42c5.2,10,6,35.2,0,44.8
	c-8.8,14-54.8,37.6-54.8,37.6c-15.6,10.8-19.6,32-8.8,48c10.8,15.6,32,19.6,48,8.8l36.8-25.2c14-14,79.6-9.2,91.2,2.8l32.8,22.8
	c15.6,10.8,37.2,6.8,48-8.8c10.8-15.6,6.8-37.2-8.8-48c0,0-41.2-20-48-33.2c-5.6-10.8-5.6-38.4,0-49.2
	C253.8,187.2,305.4,161.2,305.4,161.2z"/>
<g>
	<path style="fill:#F7CA63;" d="M111.4,123.6l34,3.6c0.4-0.8,0.8-1.2,1.2-2c-10.4-12.4-16.8-28.4-16.8-46c0-35.6,26-65.2,59.6-71.2
		c-4-0.8-8.4-1.2-12.4-1.2c-40,0-72.4,32.4-72.4,72.4c0,8,1.2,16,4,23.2C110.6,102.8,109.8,122.4,111.4,123.6z"/>
	<path style="fill:#F7CA63;" d="M70.6,333.6c-10.8-15.6-6.8-37.2,8.8-48c0,0,46-23.6,54.8-37.6c6-9.6,5.2-34.8,0-44.8
		c-8.4-16.4-60-42-60-42c-15.6-10.8-19.2-32.4-8.4-48c4-5.6,9.6-9.6,15.6-12C67,95.6,50.2,100,41,113.2c-10.8,15.6-7.2,37.2,8.4,48
		c0,0,51.6,26,60,42c5.2,10,6,35.2,0,44.8c-8.8,14-54.8,37.6-54.8,37.6c-15.6,10.8-19.6,32-8.8,48c9.2,13.2,26.4,18,40.8,12.4
		C80.2,343.6,74.6,339.6,70.6,333.6z"/>
</g>
<g>
	<path style="fill:#561900;" d="M285.8,92.4c-8.4,0-16.4,2.4-23.2,7.2l-12.4,8.4c3.6-9.2,5.6-19.2,5.6-29.6
		c0-43.2-35.2-78.4-78.4-78.4S99,35.2,99,78.4c0,10,2,20,5.6,29.6l-12.4-8.4c-6.8-4.8-14.8-7.2-23.2-7.2c-13.2,0-25.6,6.4-33.2,17.2
		C23,128,27.4,153.2,45.8,166c0.4,0,0.4,0.4,0.8,0.4c19.2,9.6,51.6,28.8,57.2,39.6c4.4,8.8,4.8,31.6,0.4,38.4
		c-5.6,9.2-35.2,26.8-52.4,35.6c-0.4,0-0.4,0.4-0.8,0.4c-18.4,12.8-23.2,38-10.4,56.4c7.6,11.2,20,17.6,33.6,17.6
		c8.4,0,16-2.4,22.8-7.2l36.8-25.2c0.4-0.4,0.8-0.4,0.8-0.8c3.2-3.2,14-6.8,34-6.8c23.2,0,44,5.2,48.8,9.6c0.4,0.4,0.4,0.4,0.8,0.8
		l32.8,22.8c6.8,4.8,14.8,7.2,22.8,7.2l0,0c13.2,0,26-6.4,33.6-17.6c12.8-18.4,8-43.6-10.4-56.4c-0.4,0-0.4-0.4-0.8-0.4
		c-16.4-8-41.2-22.8-45.2-30.4c-4.8-9.2-4.8-34.4,0-43.6c5.6-10.4,38-30,57.2-39.6c0.4,0,0.4-0.4,0.8-0.4
		c18.4-12.8,22.8-38.4,10-56.4C311.4,98.8,299,92.4,285.8,92.4z M302.2,156c-7.2,3.6-53.2,27.6-62.4,44.8c-6.4,12.8-6.4,42.4,0,55.2
		c7.2,13.6,42.4,31.6,50.4,35.6c12.4,8.8,15.6,26.4,6.8,39.2c-5.2,7.6-14,12.4-23.2,12.4l0,0c-5.6,0-11.2-1.6-16-4.8l-32.4-23.6
		c-9.6-8.8-36-12.8-56.8-12.8c-14.4,0-33.2,1.6-42.4,10l-36.4,25.2c-4.8,3.2-10.4,4.8-16,4.8c-9.2,0-18-4.4-23.2-12.4
		c-8.8-12.8-5.6-30,6.8-39.2c6.4-3.2,47.6-24.8,56.8-39.6c7.2-11.6,6.4-39.2,0.4-50.8c-8.8-17.2-55.2-41.2-62.4-44.8
		C39.8,146,37,128.8,45.8,116c5.2-7.6,14-12,23.2-12c6,0,11.6,1.6,16.4,5.2l31.6,22c1.2,0.8,3.2,1.2,4.8,1.2c1.6-0.4,3.2-1.2,4-2.8
		c0-0.4,0.4-0.4,0.4-0.8l0.8-0.8c1.6-2.4,1.6-5.2-0.4-7.6c-10-12-15.2-26.8-15.2-42c0-36.4,29.6-66,66-66s66,29.6,66,66
		c0,15.2-5.6,30.4-15.2,42c-1.6,2-2,5.2-0.4,7.6l0.8,0.8c0,0.4,0.4,0.4,0.4,0.8c0.8,1.6,2.4,2.4,4,2.8s3.2,0,4.8-1.2l31.6-22
		c4.8-3.2,10.4-5.2,16.4-5.2c9.2,0,18,4.4,23.2,12C317.8,129.6,314.6,146.8,302.2,156z"/>
	<circle style="fill:#561900;" cx="151.8" cy="71.6" r="13.2"/>
	<circle style="fill:#561900;" cx="177.4" cy="159.2" r="13.2"/>
	<path style="fill:#561900;" d="M177.4,196.4c-7.2,0-13.2,6-13.2,13.2s6,13.2,13.2,13.2c7.2,0,13.2-6,13.2-13.2
		S184.6,196.4,177.4,196.4z"/>
	<circle style="fill:#561900;" cx="177.4" cy="259.6" r="13.2"/>
	<circle style="fill:#561900;" cx="202.6" cy="71.6" r="13.2"/>
	<path style="fill:#561900;" d="M199.4,91.2c-3.6,0-6,2.8-6,6c0,8.8-7.2,15.6-15.6,15.6c-8.8,0-15.6-7.2-15.6-15.6c0-3.6-2.8-6-6-6
		c-3.6,0-6,2.8-6,6c0,15.6,12.4,28,28,28s28-12.4,28-28C205.4,94,202.6,91.2,199.4,91.2z"/>
</g>
<g>
</g>
<g>
</g>
<g>
</g>
<g>
</g>
<g>
</g>
<g>
</g>
<g>
</g>
<g>
</g>
<g>
</g>
<g>
</g>
<g>
</g>
<g>
</g>
<g>
</g>
<g>
</g>
<g>
</g>
</svg>
