<?xml version="1.0" encoding="iso-8859-1"?>
<!-- Generator: Adobe Illustrator 19.0.0, SVG Export Plug-In . SVG Version: 6.00 Build 0)  -->
<svg version="1.1" id="Capa_1" xmlns="http://www.w3.org/2000/svg" xmlns:xlink="http://www.w3.org/1999/xlink" x="0px" y="0px"
	 viewBox="0 0 386.4 386.4" style="enable-background:new 0 0 386.4 386.4;" xml:space="preserve">
<g>
	<path style="fill:#F7D57B;" d="M78,288h69.6c39.6,0,71.6-32,71.6-71.6s-32-71.6-71.6-71.6H78V288z"/>
	<path style="fill:#F7D57B;" d="M236.4,135.2v131.6c0,0,18,24.4,74.4,24.4s69.2-24.4,69.2-24.4V135.2H236.4z"/>
</g>
<path style="fill:#F9E4AB;" d="M257.6,278.4V146.8H380v-12H236.4v131.6c0,0,7.2,9.6,26.4,16.8C259.2,280.4,257.6,278.4,257.6,278.4z
	"/>
<circle style="fill:#F9F6CD;" cx="78" cy="216.4" r="71.6"/>
<path style="fill:#FFFFFF;" d="M26.4,216.4c0-36.4,26.8-66,61.6-70.8c-3.2-0.4-6.8-0.8-10-0.8c-39.6,0-71.6,32-71.6,71.6
	S38.4,288,78,288c3.6,0,6.8-0.4,10-0.8C53.2,282.4,26.4,252.4,26.4,216.4z"/>
<circle style="fill:#EB573B;" cx="78" cy="216.4" r="29.6"/>
<path style="fill:#F1705A;" d="M64,216.4c0-13.6,9.2-25.2,22-28.4c-2.4-0.8-4.8-1.2-7.6-1.2c-16.4,0-29.6,13.2-29.6,29.6
	S62,246,78.4,246c2.8,0,5.2-0.4,7.6-1.2C73.2,241.6,64,230,64,216.4z"/>
<ellipse style="fill:#F9F6CD;" cx="308.4" cy="135.2" rx="71.6" ry="40"/>
<path style="fill:#FFFFFF;" d="M257.6,135.2c0-20,26.4-36.4,61.2-39.6c-3.6-0.4-7.2-0.4-10.8-0.4c-39.6,0-71.6,18-71.6,40
	s32,40,71.6,40c3.6,0,7.2,0,10.8-0.4C284.4,171.6,257.6,155.2,257.6,135.2z"/>
<ellipse style="fill:#EB573B;" cx="308.4" cy="135.2" rx="29.6" ry="16.4"/>
<path style="fill:#F1705A;" d="M293.2,135.2c0-7.6,9.6-14,22.4-16c-2.4-0.4-4.8-0.4-7.2-0.4c-16.4,0-29.6,7.2-29.6,16.4
	c0,9.2,13.2,16.4,29.6,16.4c2.4,0,4.8-0.4,7.2-0.4C302.8,149.2,293.2,142.8,293.2,135.2z"/>
<g>
	<path style="fill:#561900;" d="M308.4,158c-20.4,0-36-9.6-36-22.8c0-12.8,15.2-22.8,36-22.8c20.4,0,36,9.6,36,22.8
		C344,148,328.8,158,308.4,158z M308.4,124.8c-14.4,0-23.6,6-23.6,10.4c0,4,9.2,10.4,23.6,10.4c14.4,0,23.6-6,23.6-10.4
		C331.6,131.2,322.4,124.8,308.4,124.8z"/>
	<path style="fill:#561900;" d="M78,294.4h69.6c42.8,0,78-34.8,78-78c0-42.8-34.8-78-78-78H78c-42.8,0-78,34.8-78,78
		C0.4,259.2,35.2,294.4,78,294.4z M148,150.8c36,0,65.6,29.6,65.6,65.6S184,282,148,282h-28c21.6-14,36-38,36-65.6
		s-14.4-51.6-36-65.6H148z M78,150.8c36,0,65.6,29.6,65.6,65.6S114,282,78,282s-65.6-29.6-65.6-65.6S42,150.8,78,150.8z"/>
	<path style="fill:#561900;" d="M78,252c19.6,0,36-16,36-36c0-19.6-16-36-36-36c-19.6,0-36,16-36,36C42.4,236,58.4,252,78,252z
		 M78,192.8c12.8,0,23.6,10.4,23.6,23.6c0,12.8-10.4,23.6-23.6,23.6c-12.8,0-23.6-10.4-23.6-23.6C54.8,203.2,65.2,192.8,78,192.8z"
		/>
	<path style="fill:#561900;" d="M308.4,89.2c-44,0-78,20-78,46v131.6c0,1.2,0.4,2.8,1.2,3.6c0.8,1.2,20.8,26.8,79.2,26.8
		c59.2,0,74-26.4,74.8-27.6c0.4-0.8,0.8-2,0.8-2.8V135.2C386,109.2,352,89.2,308.4,89.2z M308.4,101.6c35.6,0,65.6,15.6,65.6,33.6
		c0,18.4-30,33.6-65.6,33.6c-35.6,0-65.6-15.6-65.6-33.6C242.8,116.8,272.8,101.6,308.4,101.6z M310.8,284.8c-44,0-63.2-16-68-20.4
		v-104c13.6,12.8,37.6,20.8,65.6,20.8s52-8.4,65.6-20.8v104.4C370.4,269.2,354.8,284.8,310.8,284.8z"/>
</g>
<g>
</g>
<g>
</g>
<g>
</g>
<g>
</g>
<g>
</g>
<g>
</g>
<g>
</g>
<g>
</g>
<g>
</g>
<g>
</g>
<g>
</g>
<g>
</g>
<g>
</g>
<g>
</g>
<g>
</g>
</svg>
